<svg width="32" height="32" viewBox="0 0 32 32" fill="none" xmlns="http://www.w3.org/2000/svg">
  <rect width="32" height="32" rx="8" fill="#855DCD"/>
  <path d="M16 8C11.5817 8 8 11.5817 8 16C8 20.4183 11.5817 24 16 24C20.4183 24 24 20.4183 24 16C24 11.5817 20.4183 8 16 8ZM16 9.6C19.5346 9.6 22.4 12.4654 22.4 16C22.4 19.5346 19.5346 22.4 16 22.4C12.4654 22.4 9.6 19.5346 9.6 16C9.6 12.4654 12.4654 9.6 16 9.6Z" fill="white"/>
  <path d="M13.6 14.4L15.2 16L13.6 17.6M16.8 17.6L18.4 16L16.8 14.4" stroke="white" stroke-width="1.2" stroke-linecap="round" stroke-linejoin="round"/>
</svg>
