<svg width="200" height="200" viewBox="0 0 200 200" fill="none" xmlns="http://www.w3.org/2000/svg">
  <rect width="200" height="200" rx="40" fill="#855DCD"/>
  <path d="M100 50C72.3858 50 50 72.3858 50 100C50 127.614 72.3858 150 100 150C127.614 150 150 127.614 150 100C150 72.3858 127.614 50 100 50ZM100 55C124.853 55 145 75.1472 145 100C145 124.853 124.853 145 100 145C75.1472 145 55 124.853 55 100C55 75.1472 75.1472 55 100 55Z" fill="white"/>
  <path d="M85 90L95 100L85 110M105 110L115 100L105 90" stroke="white" stroke-width="4" stroke-linecap="round" stroke-linejoin="round"/>
  <circle cx="70" cy="100" r="3" fill="white"/>
  <circle cx="130" cy="100" r="3" fill="white"/>
</svg>
